<svg id="Layer_1" data-name="Layer 1" xmlns="http://www.w3.org/2000/svg" viewBox="0 0 138.6 50.01"><title>black</title><path d="M102.18,508l-.87,1.77a54.44,54.44,0,0,0-2.73,6.61,31.51,31.51,0,0,0-1.28,5.28,17.33,17.33,0,0,0-.18,3.58,13.55,13.55,0,0,0,.56,3.23,10.84,10.84,0,0,0,2.1,3.8,12.1,12.1,0,0,0,5.13,3.46,18.42,18.42,0,0,0,4.15,1,21.49,21.49,0,0,0,3.61.15c.84,0,1.69-.13,2.53-.24a34.16,34.16,0,0,0,3.7-.68c1.49-.37,3-.73,4.47-1.12,2.38-.63,4.75-1.28,7.13-1.93L141.3,530l9.58-2.6,9.55-2.62,9.49-2.6,10.42-2.85,10.74-2.92,11.08-3,10.13-2.77,8-2.2a.14.14,0,0,1,.13,0l-.71.32-10.62,4.7-6.7,3-9.83,4.34-5.72,2.53-6.7,3-9.83,4.34-6.7,3-8.18,3.62-10,4.44L135.51,546l-6.62,2.93L124,551.07c-1.35.6-2.69,1.21-4,1.8-1.76.76-3.55,1.43-5.36,2.06s-3.81,1.24-5.76,1.72a49.4,49.4,0,0,1-5.63,1.07,26.66,26.66,0,0,1-2.92.24c-.85,0-1.7.06-2.54,0a23.06,23.06,0,0,1-3.15-.3,18.38,18.38,0,0,1-3.83-1.05,14.35,14.35,0,0,1-4.79-3A13.36,13.36,0,0,1,82.31,547a17.15,17.15,0,0,1-.44-3.4,18.67,18.67,0,0,1,0-2,20.6,20.6,0,0,1,.61-3.68,37.17,37.17,0,0,1,2.07-5.8A59,59,0,0,1,89.06,524a95.1,95.1,0,0,1,5.64-7.82c1-1.3,2.12-2.57,3.21-3.83.65-.75,1.36-1.46,2-2.18.34-.35.67-.71,1-1.05s.78-.74,1.17-1.11Z" transform="translate(-81.85 -507.99)"/></svg>