<svg id="Layer_1" data-name="Layer 1" xmlns="http://www.w3.org/2000/svg" viewBox="0 0 1484.08 280.33"><defs><style>.cls-1{fill:#231f20;}</style></defs><title>ladus-novi-crni</title><path class="cls-1" d="M-608.32,80.1h-27.84v4.36s25,6.71,27.84,24.9V329.73c-2.88,18.19-27.84,24.9-27.84,24.9V359h55.67V80.1Z" transform="translate(636.16 -78.67)"/><path class="cls-1" d="M31.53,80.1H3.7v4.36s25,6.71,27.84,24.9V329.73c-2.88,18.19-27.84,24.9-27.84,24.9V359H59.37V80.1Z" transform="translate(636.16 -78.67)"/><path class="cls-1" d="M543.65,80.1h27.84v4.36s-25,6.71-27.84,24.9V329.73c2.88,18.19,27.84,24.9,27.84,24.9V359H515.81V80.1Z" transform="translate(636.16 -78.67)"/><path class="cls-1" d="M-414,303.33s-6.71,25-24.9,27.84H-565.71V359h156.06V303.33Z" transform="translate(636.16 -78.67)"/><path class="cls-1" d="M-91.34,327.46-208.14,80.89h-30.8l131.72,278V359h55.67v-4.36S-84.78,345.13-91.34,327.46Z" transform="translate(636.16 -78.67)"/><path class="cls-1" d="M-272.2,246.07h102.07L-180,225.92h-82l39.29-77.85-11.11-20.6-101,200c-6.58,17.64-38.56,27.15-38.56,27.15V359h44.16Z" transform="translate(636.16 -78.67)"/><path class="cls-1" d="M136.92,79.74H81v23.92h50.13A101.24,101.24,0,0,1,232.35,204.9v30.26A101.24,101.24,0,0,1,131.11,336.4H81V359h55.93a117.6,117.6,0,0,0,117.6-117.6V197.34A117.6,117.6,0,0,0,136.92,79.74Z" transform="translate(636.16 -78.67)"/><path class="cls-1" d="M397.19,338.39c-42.65-5-47.48-50.93-47.48-50.93V96.8L349.9,83V78.67H305.77V83s20.88,4.55,21.77,24.85V287.46s3.08,63.25,64,70.47S500.77,333.5,500.77,333.5V309C474,333.36,432.46,342.55,397.19,338.39Z" transform="translate(636.16 -78.67)"/><path class="cls-1" d="M837.06,240.89c-30.61-61.78-149.37-42.57-151.5-95.29-2.64-65.5,115.71-39.79,115.71-39.79,21.43,8.32,27.19,39.79,27.19,39.79h4.36V89.93S665.58,46,664.23,144.06s214.66,30.22,159.63,187.87C823.87,331.92,867.67,302.67,837.06,240.89Z" transform="translate(636.16 -78.67)"/><path class="cls-1" d="M795.64,244.64S852.29,375.24,680,329.16c-17.67-6.55-27.19-39.79-27.19-39.79h-4.36V345s116.3,36.06,153.48-7.75S810.65,258.6,795.64,244.64Z" transform="translate(636.16 -78.67)"/></svg>